<?xml version="1.0" standalone="no"?>
<!DOCTYPE svg PUBLIC "-//W3C//DTD SVG 20010904//EN"
 "http://www.w3.org/TR/2001/REC-SVG-20010904/DTD/svg10.dtd">
<svg version="1.0" xmlns="http://www.w3.org/2000/svg"
 width="464.000000pt" height="293.000000pt" viewBox="0 0 464.000000 293.000000"
 preserveAspectRatio="xMidYMid meet">

<g transform="translate(0.000000,293.000000) scale(0.100000,-0.100000)"
fill="#000000" stroke="none">
<path d="M1940 2913 c-58 -30 -71 -69 -68 -206 l3 -119 37 -34 c33 -29 45 -34
88 -34 43 0 55 5 88 34 l37 34 3 115 c4 127 -8 173 -52 202 -39 26 -95 29
-136 8z"/>
<path d="M2634 2900 c-40 -16 -72 -67 -80 -126 -9 -73 1 -175 21 -214 47 -91
200 -75 233 25 19 55 12 219 -11 261 -27 51 -105 78 -163 54z"/>
<path d="M1763 2281 c-110 -28 -136 -117 -67 -229 74 -118 247 -180 536 -189
349 -11 587 35 696 136 38 35 71 103 72 144 0 66 -115 121 -206 98 -63 -16
-90 -36 -111 -82 -28 -64 -76 -74 -363 -74 -231 0 -236 0 -285 25 -43 22 -51
30 -58 64 -13 66 -56 100 -137 109 -25 3 -60 2 -77 -2z"/>
<path d="M300 1918 c-75 -21 -131 -102 -174 -252 -35 -119 -52 -253 -76 -610
-12 -170 -27 -377 -34 -460 -13 -159 -9 -196 25 -240 24 -30 83 -49 123 -38
16 4 63 4 105 -1 50 -6 130 -5 236 3 88 7 173 13 188 14 28 1 29 -1 53 -94 31
-123 41 -145 75 -174 42 -36 80 -41 133 -18 81 36 91 86 47 246 -11 44 -19 81
-17 83 2 2 48 14 102 28 140 34 264 79 372 135 l93 49 82 -36 c186 -82 411
-144 717 -198 79 -14 148 -25 152 -25 4 0 22 -28 39 -61 55 -110 156 -198 271
-238 81 -28 169 -34 286 -21 260 28 466 129 673 327 l98 94 38 -10 c56 -16
161 -13 224 5 81 24 180 79 256 143 80 67 216 237 240 300 15 38 15 48 2 84
-18 53 -67 87 -125 87 -54 0 -85 -25 -157 -129 -88 -125 -233 -241 -302 -241
-20 0 -20 4 17 114 54 161 71 287 64 466 -9 232 -70 517 -124 573 -50 52 -129
53 -183 1 -44 -42 -46 -78 -10 -215 56 -209 73 -403 50 -566 -13 -95 -61 -248
-77 -248 -28 0 -111 136 -227 370 -142 288 -201 381 -302 483 -100 100 -174
135 -300 140 -187 8 -375 -60 -631 -230 -41 -26 -76 -48 -79 -48 -2 0 -29 20
-58 45 -113 97 -259 170 -462 231 -79 25 -104 27 -248 28 -216 1 -315 -26
-450 -124 -53 -38 -149 -137 -175 -180 -12 -20 -24 -8 -192 186 -149 174 -188
207 -258 223 -53 12 -54 12 -100 -1z m216 -454 c71 -80 148 -167 171 -193 l43
-48 -27 -114 c-25 -104 -28 -131 -27 -311 0 -189 -1 -197 -21 -203 -11 -3
-101 -9 -199 -12 l-179 -6 7 79 c3 43 15 214 27 379 11 165 26 344 34 399 14
94 32 176 39 176 2 0 61 -66 132 -146z m1199 52 c111 -37 222 -94 284 -145
l33 -28 -53 -49 c-162 -151 -275 -250 -431 -382 -16 -13 -27 -8 -115 51 -137
93 -393 313 -393 339 0 24 58 114 94 146 99 87 185 113 351 108 106 -3 132 -7
230 -40z m1367 -64 c79 -88 142 -194 246 -420 89 -191 167 -317 250 -404 l56
-59 -50 -50 c-104 -107 -266 -199 -411 -234 -40 -9 -114 -18 -165 -19 -80 -1
-99 2 -137 22 l-44 24 31 18 c38 23 80 78 92 121 22 75 31 214 40 617 6 233
12 428 16 433 8 13 36 -4 76 -49z m-354 -387 c-5 -231 -13 -435 -16 -454 -7
-31 -12 -20 -46 105 -71 254 -142 432 -217 541 -16 23 -29 44 -29 48 0 17 306
193 316 182 1 -1 -2 -191 -8 -422z m-480 22 c18 -30 48 -91 68 -137 39 -93
110 -328 101 -336 -20 -21 -581 120 -619 155 -4 4 25 34 65 68 39 34 131 115
202 182 72 66 135 120 140 121 6 0 25 -24 43 -53z m-1190 -164 c40 -35 107
-89 149 -120 l76 -58 -52 -22 c-49 -22 -192 -65 -258 -78 l-31 -6 -7 97 c-7
95 -2 225 11 258 7 19 3 22 112 -71z"/>
</g>
</svg>
