<?xml version="1.0" encoding="UTF-8" standalone="no"?>
<svg
   xmlns:dc="http://purl.org/dc/elements/1.1/"
   xmlns:cc="http://creativecommons.org/ns#"
   xmlns:rdf="http://www.w3.org/1999/02/22-rdf-syntax-ns#"
   xmlns:svg="http://www.w3.org/2000/svg"
   xmlns="http://www.w3.org/2000/svg"
   xmlns:sodipodi="http://sodipodi.sourceforge.net/DTD/sodipodi-0.dtd"
   xmlns:inkscape="http://www.inkscape.org/namespaces/inkscape"
   width="210mm"
   height="297mm"
   viewBox="0 0 210 297"
   version="1.1"
   id="svg8"
   inkscape:version="1.0 (4035a4fb49, 2020-05-01)"
   sodipodi:docname="logo04.svg">
  <defs
     id="defs2" />
  <sodipodi:namedview
     id="base"
     pagecolor="#ffffff"
     bordercolor="#666666"
     borderopacity="1.0"
     inkscape:pageopacity="0.0"
     inkscape:pageshadow="2"
     inkscape:zoom="0.35"
     inkscape:cx="400"
     inkscape:cy="560"
     inkscape:document-units="mm"
     inkscape:current-layer="layer1"
     inkscape:document-rotation="0"
     showgrid="false"
     inkscape:window-width="1350"
     inkscape:window-height="728"
     inkscape:window-x="0"
     inkscape:window-y="0"
     inkscape:window-maximized="0" />
  <metadata
     id="metadata5">
    <rdf:RDF>
      <cc:Work
         rdf:about="">
        <dc:format>image/svg+xml</dc:format>
        <dc:type
           rdf:resource="http://purl.org/dc/dcmitype/StillImage" />
        <dc:title></dc:title>
      </cc:Work>
    </rdf:RDF>
  </metadata>
  <g
     inkscape:label="レイヤー 1"
     inkscape:groupmode="layer"
     id="layer1">
    <circle
       id="path117"
       style="fill:#ff7f2a;stroke:#000000;stroke-width:0.264583"
       cx="-59.720242"
       cy="-57.452377"
       r="0.099906191" />
    <path
       d="m 34.017857,184.39451 c 0.595768,-7.12676 1.205254,-14.24832 1.614712,-21.38992 0.475203,-7.07011 0.693799,-14.26386 2.915389,-21.04707 -1.206072,1.44388 1.560758,-2.86666 1.170053,-2.15028 -0.209021,0.38325 -0.354041,0.84864 -0.711142,1.09973 -0.554773,0.3901 -1.39496,0.27894 -1.897385,0.73448 -0.185962,0.1686 0.201343,0.46553 0.354595,0.66434 0.496898,0.6446 1.058367,1.23674 1.58755,1.85511 5.776132,7.05631 11.99974,13.77149 18.76008,19.89904 1.719051,1.55814 3.502885,3.04328 5.254329,4.56492 6.95766,5.95077 14.818857,10.63996 23.383649,13.86809 4.905693,1.84899 6.361721,2.07714 11.36555,3.35387 6.796673,1.47188 13.654173,2.74465 20.565233,3.54728 2.29267,0.2433 6.18085,0.54273 7.95976,-1.28326 2.66957,-2.74023 2.41734,-3.78024 3.07732,-7.14946 0.82176,-10.11538 0.53615,-20.27484 0.97333,-30.40962 0.41776,-5.46512 0.18864,-2.85156 0.67306,-7.84195 0.618,-6.38463 -8.41123,-7.25861 -9.02923,-0.87398 v 0 c -0.50941,5.27706 -0.2681,2.50183 -0.70693,8.32716 -0.41697,9.77339 -0.21092,19.56324 -0.86129,29.3255 -0.0506,0.52953 -0.54207,1.22707 -0.15186,1.58859 0.32786,0.30374 0.76492,-0.4714 1.18064,-0.63548 0.18156,-0.0717 0.38935,-0.0889 0.58245,-0.0603 0.0501,0.007 -0.0169,0.12934 -0.067,0.13647 -0.32013,0.0455 -0.64707,0.0277 -0.96998,0.0109 -0.54145,-0.0283 -1.07999,-0.0974 -1.61998,-0.1461 -6.51322,-0.74674 -12.97248,-1.96586 -19.38085,-3.33011 -1.653186,-0.41411 -3.32296,-0.76686 -4.959554,-1.24233 -9.619551,-2.79469 -18.459934,-7.50007 -26.068943,-14.03677 -1.655085,-1.43432 -3.340822,-2.83403 -4.965258,-4.30298 -6.594136,-5.96296 -12.638077,-12.52105 -18.266968,-19.39475 -1.495631,-1.59866 -3.746111,-4.45312 -6.038125,-5.11547 -5.789618,-1.6731 -8.044802,1.68777 -9.834689,6.23823 -0.290857,0.92854 -0.623017,1.84514 -0.87257,2.78562 -1.771292,6.67539 -1.933429,13.65795 -2.457796,20.50222 -0.41801,7.31449 -1.08838,14.60457 -1.629539,21.90834 0,6.41446 9.071429,6.41446 9.071429,0 z"
       id="path459"
       style="fill:#0000ff;stroke-width:0.264583" />
    <path
       d="m 32.666765,189.04349 c 9.350671,0.73962 18.691333,-0.80247 27.868456,-2.42391 5.899708,-1.25268 11.71946,-3.06724 16.972497,-6.09705 4.868606,-2.80808 9.126006,-6.55521 13.3941,-10.16732 4.468868,-3.81916 8.632518,-7.99848 13.122182,-11.79298 2.82906,-2.39103 3.59888,-2.81954 6.6317,-4.92563 4.60893,-3.07764 9.39108,-5.94055 14.84688,-7.13239 4.11387,-0.792 5.19342,-0.20213 7.99292,2.57363 4.51619,5.09363 7.09915,11.44901 9.91739,17.55172 2.55698,5.34399 5.7296,10.57667 10.3827,14.37391 2.84301,2.32008 3.64714,2.45094 6.88952,3.94679 1.28799,0.29916 2.5471,0.77806 3.86398,0.89747 5.89195,0.53426 11.16916,-2.26078 15.45513,-6.04919 1.034,-0.91397 1.95018,-1.95316 2.92528,-2.92973 3.14675,-3.98935 1.70727,-2.01917 4.35111,-5.88655 3.60583,-5.30504 -3.89663,-10.40445 -7.50245,-5.09941 v 0 c -2.10373,3.1167 -0.99964,1.57352 -3.3172,4.62601 -2.47831,2.57364 -6.14863,6.45023 -10.08713,6.45286 -0.6854,5.3e-4 -1.35479,-0.20887 -2.03218,-0.3133 -0.71139,-0.28895 -1.45271,-0.51304 -2.13418,-0.86683 -5.12006,-2.65814 -8.10743,-7.98712 -10.55892,-12.95528 -3.30461,-7.15583 -6.43625,-14.55087 -11.93759,-20.35595 -1.77621,-1.62085 -2.59819,-2.58355 -4.75773,-3.70802 -3.62466,-1.88736 -7.5819,-1.90559 -11.49688,-1.09576 -0.94176,0.22642 -1.89577,0.4069 -2.82529,0.67927 -5.5032,1.61255 -10.38229,4.79653 -15.16603,7.85114 -3.57428,2.5041 -4.17345,2.80336 -7.511553,5.62435 -4.420047,3.73532 -8.522279,7.84617 -12.915778,11.61268 -3.690758,3.13087 -7.379952,6.48138 -11.562829,8.96281 -4.474395,2.65438 -9.46786,4.20498 -14.523058,5.29058 -8.286184,1.47406 -16.710933,2.90529 -25.159875,2.3547 -6.364935,-0.79561 -7.490107,8.20576 -1.125172,9.00138 z"
       id="path461"
       style="fill:#0000ff;stroke-width:0.264583" />
    <path
       d="m 60.672074,192.71972 c -1.973894,-6.29372 -2.597467,-12.87337 -3.185662,-19.40986 -0.0043,-1.50094 -0.131649,-3.00656 -0.01304,-4.50281 0.39075,-4.92974 2.74488,-13.85559 5.61522,-17.92654 0.666684,-0.94555 1.632561,-1.63978 2.44884,-2.45967 0.974508,-0.57643 1.889866,-1.26724 2.923525,-1.72929 4.708043,-2.10452 10.187005,-1.74487 15.05037,-0.45054 1.3257,0.35283 2.598155,0.88173 3.897233,1.32259 7.509494,2.92473 11.573949,7.11469 16.11491,13.55053 3.56142,5.52301 5.13002,11.95576 6.90086,18.20317 1.06838,3.46036 1.8174,7.05357 3.32839,10.3643 0.91814,2.01176 1.28665,2.42468 2.48132,4.24308 2.55864,2.91859 5.97622,5.2349 9.87061,5.9359 3.09435,0.55698 4.63252,0.32082 7.71273,0.18204 6.50265,-0.67772 12.7517,-2.96735 18.13116,-6.70311 1.13658,-0.78929 2.18643,-1.69668 3.27965,-2.54502 4.18008,-3.66436 8.04249,-7.68645 10.5834,-12.68551 1.75957,-3.46182 2.04398,-4.93536 3.19496,-8.63928 2.09667,-8.293 1.48673,-16.83185 -0.28144,-25.10832 -0.49488,-2.04848 -1.08156,-4.07256 -1.64544,-6.10256 -1.71677,-6.18046 -10.45726,-3.75257 -8.74049,2.42789 v 0 c 0.51752,1.86306 1.0553,3.72078 1.52071,5.59789 1.49107,6.74661 2.06353,13.74891 0.46946,20.53992 -0.97979,3.29396 -1.95261,6.61563 -3.89056,9.50967 -1.862,2.78063 -4.41315,5.04708 -6.8193,7.33055 -0.82071,0.65728 -1.60603,1.36135 -2.46213,1.97182 -4.08308,2.9116 -8.84157,4.7662 -13.81669,5.34716 -0.72451,0.0456 -3.70377,0.29052 -4.67846,0.17343 -1.79635,-0.21581 -3.53084,-1.14582 -4.89468,-2.28592 -0.68785,-0.99193 -1.0756,-1.46509 -1.59642,-2.5692 -1.41594,-3.00172 -2.00596,-6.3192 -3.01922,-9.45869 -2.05552,-7.25105 -3.98902,-14.65666 -8.24347,-20.99736 -0.81371,-1.13059 -1.57808,-2.29838 -2.44111,-3.39179 -4.89447,-6.20101 -10.797007,-10.73953 -18.228881,-13.50933 -4.386154,-1.40302 -5.809368,-2.10935 -10.45288,-2.57204 -5.549932,-0.553 -11.281013,0.0745 -16.280371,2.72063 -1.679037,0.8887 -3.127118,2.158 -4.690676,3.23699 -1.275651,1.48931 -2.734201,2.83967 -3.826954,4.46792 -0.981885,1.46305 -1.663766,3.11206 -2.349423,4.73518 -3.006646,7.11744 -4.603107,14.86763 -4.186275,22.59323 0.666933,7.34263 1.412865,14.73533 3.726392,21.77814 2.252268,6.00605 10.746113,2.82086 8.493842,-3.18519 z"
       id="path465"
       style="fill:#0000ff;stroke-width:0.264583" />
    <path
       d="m 114.90476,102.59612 c 0,1.60745 0,3.21489 0,4.82233 0,6.41447 9.07142,6.41447 9.07142,0 v 0 c 0,-1.60744 0,-3.21488 0,-4.82233 0,-6.414468 -9.07142,-6.414468 -9.07142,0 z"
       id="path471"
       style="fill:#0000ff;stroke-width:0.264583" />
    <path
       d="m 83.154761,123.80047 c 0.151035,2.56556 1.342404,5.00232 4.021361,6.8936 0.657526,0.4642 1.428713,0.84907 2.14307,1.27362 5.303968,2.4166 11.445418,2.88131 17.678518,2.78338 4.71072,-0.15576 9.3775,-0.37482 13.84101,-1.44511 3.43618,-0.89242 5.71989,-1.95951 7.72701,-4.07818 0.89771,-0.984 1.31107,-2.09 1.70814,-3.19747 1.75622,-5.20393 -9.18904,-6.87392 -10.94526,-1.67 v 0 c -0.0896,0.31453 -0.13304,0.63659 -0.33691,0.92924 -0.34995,0.44893 -0.22557,0.19119 0.29947,0.0306 0.0737,-0.0225 -0.0984,0.0891 -0.16538,0.11973 -0.70289,0.32175 -1.44168,0.60225 -2.23853,0.80269 -3.2016,0.91771 -6.83752,0.68401 -10.22662,0.96533 -3.48071,0.093 -6.942862,-0.0214 -10.155092,-1.03697 -1.651585,-0.77105 -1.905559,-0.93475 -2.127278,-2.37048 0,-5.33622 -11.223509,-5.33622 -11.223509,0 z"
       id="path475"
       style="fill:#0000ff;stroke-width:0.268426" />
    <path
       style="fill:#0000ff;stroke-width:0.264583"
       id="path471-2"
       d="m 90.714293,101.91026 c 0,1.60745 0,3.21489 0,4.82233 0,6.41447 9.07142,6.41447 9.07142,0 v 0 c 0,-1.60744 0,-3.21488 0,-4.82233 0,-6.414465 -9.07142,-6.414465 -9.07142,0 z" />
  </g>
</svg>
