<?xml version="1.0" encoding="UTF-8" standalone="no"?>
<svg
   xmlns:dc="http://purl.org/dc/elements/1.1/"
   xmlns:cc="http://creativecommons.org/ns#"
   xmlns:rdf="http://www.w3.org/1999/02/22-rdf-syntax-ns#"
   xmlns:svg="http://www.w3.org/2000/svg"
   xmlns="http://www.w3.org/2000/svg"
   xmlns:sodipodi="http://sodipodi.sourceforge.net/DTD/sodipodi-0.dtd"
   xmlns:inkscape="http://www.inkscape.org/namespaces/inkscape"
   sodipodi:docname="title02.svg"
   inkscape:version="1.0 (4035a4fb49, 2020-05-01)"
   id="svg181"
   version="1.1"
   viewBox="0 0 210 297"
   height="297mm"
   width="210mm">
  <defs
     id="defs175" />
  <sodipodi:namedview
     inkscape:window-maximized="0"
     inkscape:window-y="10"
     inkscape:window-x="19"
     inkscape:window-height="728"
     inkscape:window-width="1350"
     showgrid="false"
     inkscape:document-rotation="0"
     inkscape:current-layer="layer1"
     inkscape:document-units="mm"
     inkscape:cy="560"
     inkscape:cx="400"
     inkscape:zoom="0.35"
     inkscape:pageshadow="2"
     inkscape:pageopacity="0.0"
     borderopacity="1.0"
     bordercolor="#666666"
     pagecolor="#ffffff"
     id="base" />
  <metadata
     id="metadata178">
    <rdf:RDF>
      <cc:Work
         rdf:about="">
        <dc:format>image/svg+xml</dc:format>
        <dc:type
           rdf:resource="http://purl.org/dc/dcmitype/StillImage" />
        <dc:title></dc:title>
      </cc:Work>
    </rdf:RDF>
  </metadata>
  <g
     id="layer1"
     inkscape:groupmode="layer"
     inkscape:label="レイヤー 1">
    <g
       transform="matrix(0.72500745,0,0,1.0721424,62.387856,13.908578)"
       style="font-style:normal;font-weight:normal;font-size:22.5778px;line-height:1.25;font-family:sans-serif;fill:#000000;fill-opacity:1;stroke:none;stroke-width:0.264583"
       id="text185"
       aria-label="Welcome to my Portfolio!">
      <path
         id="path187"
         style="font-style:normal;font-variant:normal;font-weight:normal;font-stretch:normal;font-size:22.5778px;font-family:'Eras Demi ITC';-inkscape-font-specification:'Eras Demi ITC';fill:#338000;stroke-width:0.264583"
         d="m -69.90669,95.25 q -2.700958,-7.58473 -5.611378,-15.048192 1.058335,0.02205 1.719794,0.02205 0.727605,0 1.719793,-0.02205 l 3.086809,9.128134 1.289845,3.593927 q 0.418924,-0.815799 1.256772,-2.612763 0.848873,-1.807988 1.212675,-2.667885 -0.507119,-1.543404 -1.289845,-3.737243 -0.771702,-2.193839 -1.355991,-3.70417 0.937067,0.02205 1.642623,0.02205 0.782727,0 1.642623,-0.02205 0.518143,1.995401 1.146529,3.946705 0.926043,-1.995401 1.697745,-3.946705 0.959116,0.02205 1.543404,0.02205 0.672484,0 1.543405,-0.02205 -0.705556,1.411112 -1.752867,3.604951 -1.036285,2.193839 -1.675696,3.660073 0.242535,0.793751 0.903994,2.689934 0.661459,1.896182 0.97014,2.678909 l 2.965541,-6.30591 2.149742,-4.718407 0.705556,-1.60955 q 1.058335,0.02205 1.697745,0.02205 0.705556,0 1.708769,-0.02205 l -2.072571,4.11207 -4.332557,8.885599 -0.97014,2.050523 q -1.179602,-0.02205 -2.01745,-0.02205 -0.881945,0 -2.028474,0.02205 -0.650435,-2.226912 -1.433161,-4.376654 -1.04731,2.149742 -1.984377,4.376654 -1.179602,-0.02205 -2.039499,-0.02205 -0.903994,0 -2.039498,0.02205 z" />
      <path
         id="path189"
         style="font-style:normal;font-variant:normal;font-weight:normal;font-stretch:normal;font-size:22.5778px;font-family:'Eras Demi ITC';-inkscape-font-specification:'Eras Demi ITC';fill:#338000;stroke-width:0.264583"
         d="m -40.7143,92.74748 q -0.143316,0.650435 -0.407899,2.337155 -1.190626,0.25356 -2.006426,0.341754 -0.815799,0.08819 -1.642623,0.08819 -1.444186,0 -2.590715,-0.286633 -1.135504,-0.286632 -1.995401,-1.04731 -0.859897,-0.771702 -1.267796,-1.885158 -0.4079,-1.113456 -0.4079,-2.337155 0,-1.355991 0.474046,-2.623787 0.474045,-1.278821 1.322918,-2.083596 0.859896,-0.8158 1.951304,-1.146529 1.091407,-0.341754 2.282033,-0.341754 1.124481,0 2.138718,0.286632 1.014237,0.275608 1.697744,0.915018 0.694532,0.639411 1.058335,1.543405 0.374827,0.892969 0.374827,1.995401 0,0.518143 -0.110244,1.069359 l -8.080824,0.01102 q -0.02205,0.4079 -0.02205,0.650435 0,0.738629 0.253559,1.355991 0.253559,0.617362 0.738629,1.04731 0.48507,0.429948 1.157553,0.63941 0.672484,0.198438 1.322918,0.198438 0.760678,0 1.642624,-0.165365 0.892969,-0.165365 2.116668,-0.56224 z m -7.121708,-4.453824 5.15938,0.01102 q 0,-0.529167 -0.03307,-0.782726 -0.03307,-0.253559 -0.15434,-0.573265 -0.110243,-0.330729 -0.308681,-0.573264 -0.198438,-0.253559 -0.463021,-0.418924 -0.264584,-0.165365 -0.617362,-0.253559 -0.341754,-0.08819 -0.738629,-0.08819 -0.463022,0 -0.903994,0.143316 -0.429949,0.143316 -0.793751,0.418924 -0.363803,0.275608 -0.595313,0.617362 -0.220487,0.341754 -0.33073,0.661459 -0.110243,0.308681 -0.220486,0.837848 z" />
      <path
         id="path191"
         style="font-style:normal;font-variant:normal;font-weight:normal;font-stretch:normal;font-size:22.5778px;font-family:'Eras Demi ITC';-inkscape-font-specification:'Eras Demi ITC';fill:#338000;stroke-width:0.264583"
         d="m -38.057439,95.25 q 0.165365,-1.86311 0.396876,-6.69176 0.242535,-4.839675 0.297656,-8.356432 1.146529,0.02205 1.631599,0.02205 0.650435,0 1.587502,-0.02205 l -0.264584,4.023875 -0.385851,8.973794 -0.0441,2.050523 q -0.903994,-0.02205 -1.53238,-0.02205 -0.209462,0 -1.686721,0.02205 z" />
      <path
         id="path193"
         style="font-style:normal;font-variant:normal;font-weight:normal;font-stretch:normal;font-size:22.5778px;font-family:'Eras Demi ITC';-inkscape-font-specification:'Eras Demi ITC';fill:#338000;stroke-width:0.264583"
         d="m -23.284856,92.703383 q -0.05512,0.451997 -0.165365,1.025261 -0.110243,0.573265 -0.23151,1.422137 -1.576477,0.363803 -3.108857,0.363803 -0.89297,0 -1.719794,-0.165365 -0.826824,-0.165365 -1.543404,-0.584289 -0.705557,-0.429948 -1.245748,-1.12448 -0.540192,-0.694532 -0.815799,-1.675696 -0.264584,-0.992189 -0.264584,-2.039499 0,-1.389064 0.440973,-2.667885 0.451997,-1.27882 1.311893,-2.083596 0.859897,-0.815799 1.907207,-1.102431 1.058334,-0.297657 2.34818,-0.297657 0.71658,0 1.477258,0.08819 0.760678,0.07717 1.796964,0.330729 l 0.165364,2.414326 q -1.642623,-0.562241 -2.866322,-0.562241 -0.749654,0 -1.422137,0.25356 -0.661459,0.253559 -1.146529,0.804775 -0.474045,0.540191 -0.683507,1.256772 -0.198438,0.716581 -0.198438,1.466234 0,1.04731 0.319705,1.819012 0.33073,0.760678 1.12448,1.179602 0.793751,0.418924 1.807988,0.418924 0.496095,0 1.201651,-0.121267 0.71658,-0.132292 1.510331,-0.418924 z" />
      <path
         id="path195"
         style="font-style:normal;font-variant:normal;font-weight:normal;font-stretch:normal;font-size:22.5778px;font-family:'Eras Demi ITC';-inkscape-font-specification:'Eras Demi ITC';fill:#338000;stroke-width:0.264583"
         d="m -15.016616,83.773686 q 1.267796,0 2.425349,0.385851 1.168578,0.374827 1.973353,1.124481 0.8157996,0.738629 1.2236993,1.819012 0.4078997,1.069359 0.4078997,2.259985 0,1.256772 -0.4299483,2.42535 -0.4299484,1.168577 -1.2457477,2.028474 -0.8158,0.848872 -2.039499,1.278821 -1.212675,0.418924 -2.590714,0.418924 -1.278821,0 -2.436374,-0.374827 -1.146529,-0.385851 -1.962329,-1.146529 -0.815799,-0.760678 -1.245747,-1.852085 -0.418924,-1.091408 -0.418924,-2.282034 0,-1.212675 0.385851,-2.315106 0.385851,-1.102432 1.20165,-1.962329 0.826824,-0.859897 2.105645,-1.333942 1.27882,-0.474046 2.645836,-0.474046 z m 0,2.271009 q -0.959116,0 -1.719794,0.474046 -0.749653,0.463021 -1.12448,1.389064 -0.363802,0.926043 -0.363802,2.01745 0,0.959116 0.297656,1.708769 0.308681,0.749654 0.992189,1.212675 0.694532,0.463021 1.642623,0.463021 0.97014,0 1.697745,-0.474045 0.738629,-0.48507 1.102431,-1.411113 0.374827,-0.937067 0.374827,-2.061547 0,-0.915018 -0.286632,-1.664672 -0.286632,-0.749654 -0.97014,-1.201651 -0.672483,-0.451997 -1.642623,-0.451997 z" />
      <path
         id="path197"
         style="font-style:normal;font-variant:normal;font-weight:normal;font-stretch:normal;font-size:22.5778px;font-family:'Eras Demi ITC';-inkscape-font-specification:'Eras Demi ITC';fill:#338000;stroke-width:0.264583"
         d="m -7.0901346,95.25 q 0.1543405,-1.874134 0.3197052,-5.600353 0.1763891,-3.726219 0.1763891,-5.611377 0.9370669,0.02205 1.5213557,0.02205 0.6724833,0 1.4552098,-0.02205 l -0.088194,1.774915 q 0.3527781,-0.518143 0.6394104,-0.837848 0.2976565,-0.33073 0.7606778,-0.606338 0.4630213,-0.275608 1.0803831,-0.429948 0.62838602,-0.165365 1.28984503,-0.165365 0.49609425,0 0.95911557,0.09922 0.4630213,0.08819 0.8378481,0.264584 0.385851,0.165364 0.6504347,0.385851 0.2756079,0.220486 0.4630213,0.496094 0.1874133,0.264584 0.4078997,0.793751 0.2425349,-0.385851 0.4409726,-0.639411 0.2094621,-0.264583 0.5512159,-0.540191 0.3417538,-0.275608 0.7606778,-0.463021 0.4189241,-0.187414 0.937067,-0.286633 0.5291672,-0.110243 1.0914073,-0.110243 0.9591156,0 1.807988,0.319705 0.8488724,0.308681 1.3339425,0.992189 0.48507,0.672483 0.48507,1.675696 0,0.529167 -0.07717,1.554429 -0.07717,1.025261 -0.187413,3.351392 -0.110244,2.315107 -0.121268,3.582903 -0.8047755,-0.02205 -1.4221372,-0.02205 -0.7276049,0 -1.7087691,0.02205 0.099219,-1.422137 0.1874134,-2.976566 l 0.1322918,-2.524568 q 0.055122,-0.959116 0.055122,-1.620575 0,-0.782726 -0.2535593,-1.179602 -0.242535,-0.407899 -0.6283861,-0.573264 -0.3748267,-0.176389 -0.8488724,-0.176389 -0.4960942,0 -0.9039939,0.187413 -0.3968754,0.187414 -0.7496536,0.606338 -0.3417538,0.418924 -0.5291672,0.981164 -0.1874134,0.551216 -0.2756079,1.565453 -0.088194,1.003213 -0.1433161,2.645836 L 3.2396503,95.25 Q 2.324632,95.22795 1.7182945,95.22795 q -0.6063374,0 -1.62057452,0.02205 0.07717022,-0.848872 0.22048633,-3.47266 0.14331612,-2.623787 0.14331612,-3.538805 0,-0.48507 -0.0771702,-0.8158 Q 0.307182,87.080981 0.06464703,86.783325 -0.16686362,86.474644 -0.48656881,86.331328 -0.806274,86.188012 -1.225198,86.188012 q -0.7717022,0 -1.355991,0.507118 -0.5842888,0.507119 -0.8598967,1.355991 -0.2645836,0.848873 -0.3858511,3.307295 Q -3.93718,93.805815 -3.93718,95.25 q -1.0142371,-0.02205 -1.53238,-0.02205 -0.5842888,0 -1.6205746,0.02205 z" />
      <path
         id="path199"
         style="font-style:normal;font-variant:normal;font-weight:normal;font-stretch:normal;font-size:22.5778px;font-family:'Eras Demi ITC';-inkscape-font-specification:'Eras Demi ITC';fill:#338000;stroke-width:0.264583"
         d="m 23.094445,92.74748 q -0.143316,0.650435 -0.4079,2.337155 -1.190626,0.25356 -2.006425,0.341754 -0.8158,0.08819 -1.642624,0.08819 -1.444185,0 -2.590714,-0.286633 -1.135505,-0.286632 -1.995401,-1.04731 -0.859897,-0.771702 -1.267797,-1.885158 -0.4079,-1.113456 -0.4079,-2.337155 0,-1.355991 0.474046,-2.623787 0.474046,-1.278821 1.322918,-2.083596 0.859897,-0.8158 1.951304,-1.146529 1.091407,-0.341754 2.282034,-0.341754 1.12448,0 2.138717,0.286632 1.014237,0.275608 1.697745,0.915018 0.694532,0.639411 1.058334,1.543405 0.374827,0.892969 0.374827,1.995401 0,0.518143 -0.110243,1.069359 l -8.080824,0.01102 q -0.02205,0.4079 -0.02205,0.650435 0,0.738629 0.253559,1.355991 0.25356,0.617362 0.73863,1.04731 0.48507,0.429948 1.157553,0.63941 0.672483,0.198438 1.322918,0.198438 0.760678,0 1.642623,-0.165365 0.89297,-0.165365 2.116669,-0.56224 z m -7.121709,-4.453824 5.159381,0.01102 q 0,-0.529167 -0.03307,-0.782726 -0.03307,-0.253559 -0.154341,-0.573265 -0.110243,-0.330729 -0.308681,-0.573264 -0.198437,-0.253559 -0.463021,-0.418924 -0.264584,-0.165365 -0.617362,-0.253559 -0.341754,-0.08819 -0.738629,-0.08819 -0.463021,0 -0.903994,0.143316 -0.429948,0.143316 -0.793751,0.418924 -0.363802,0.275608 -0.595313,0.617362 -0.220486,0.341754 -0.330729,0.661459 -0.110244,0.308681 -0.220487,0.837848 z" />
      <path
         id="path201"
         style="font-style:normal;font-variant:normal;font-weight:normal;font-stretch:normal;font-size:22.5778px;font-family:'Eras Demi ITC';-inkscape-font-specification:'Eras Demi ITC';fill:#338000;stroke-width:0.264583"
         d="m 38.263908,92.945918 q -0.132292,0.606337 -0.418924,2.24896 -0.926042,0.209462 -1.45521,0.264584 -0.529167,0.05512 -0.992188,0.05512 -0.8158,0 -1.466234,-0.154341 -0.639411,-0.15434 -1.058335,-0.540191 -0.418924,-0.396876 -0.573264,-0.915019 -0.143316,-0.529167 -0.143316,-1.091407 0,-0.143316 0.01102,-0.385851 0.01102,-0.242535 0.08819,-1.565453 l 0.253559,-4.586116 h -1.587502 q 0.05512,-0.661459 0.09922,-2.127693 h 1.664672 q 0.06615,-0.63941 0.132292,-2.17179 l 1.300869,-0.25356 q 0.4079,-0.07717 1.576477,-0.363802 -0.07717,1.488283 -0.08819,2.789152 h 2.800176 q -0.07717,1.488283 -0.07717,2.127693 h -2.811201 q -0.23151,4.486897 -0.23151,5.192453 0,0.683508 0.143316,1.058335 0.15434,0.374827 0.48507,0.540191 0.330729,0.165365 0.705556,0.165365 0.275608,0 0.573264,-0.0441 0.308681,-0.0441 1.069359,-0.242535 z" />
      <path
         id="path203"
         style="font-style:normal;font-variant:normal;font-weight:normal;font-stretch:normal;font-size:22.5778px;font-family:'Eras Demi ITC';-inkscape-font-specification:'Eras Demi ITC';fill:#338000;stroke-width:0.264583"
         d="m 45.793515,83.773686 q 1.267796,0 2.42535,0.385851 1.168577,0.374827 1.973352,1.124481 0.8158,0.738629 1.223699,1.819012 0.4079,1.069359 0.4079,2.259985 0,1.256772 -0.429948,2.42535 -0.429949,1.168577 -1.245748,2.028474 -0.8158,0.848872 -2.039499,1.278821 -1.212675,0.418924 -2.590714,0.418924 -1.278821,0 -2.436374,-0.374827 -1.146529,-0.385851 -1.962328,-1.146529 -0.8158,-0.760678 -1.245748,-1.852085 -0.418924,-1.091408 -0.418924,-2.282034 0,-1.212675 0.385851,-2.315106 0.385851,-1.102432 1.20165,-1.962329 0.826824,-0.859897 2.105645,-1.333942 1.278821,-0.474046 2.645836,-0.474046 z m 0,2.271009 q -0.959116,0 -1.719794,0.474046 -0.749653,0.463021 -1.12448,1.389064 -0.363802,0.926043 -0.363802,2.01745 0,0.959116 0.297656,1.708769 0.308681,0.749654 0.992189,1.212675 0.694532,0.463021 1.642623,0.463021 0.97014,0 1.697745,-0.474045 0.738629,-0.48507 1.102431,-1.411113 0.374827,-0.937067 0.374827,-2.061547 0,-0.915018 -0.286632,-1.664672 -0.286632,-0.749654 -0.97014,-1.201651 -0.672483,-0.451997 -1.642623,-0.451997 z" />
      <path
         id="path205"
         style="font-style:normal;font-variant:normal;font-weight:normal;font-stretch:normal;font-size:22.5778px;font-family:'Eras Demi ITC';-inkscape-font-specification:'Eras Demi ITC';fill:#338000;stroke-width:0.264583"
         d="m 59.364448,95.25 q 0.15434,-1.874134 0.319705,-5.600353 0.176389,-3.726219 0.176389,-5.611377 0.937067,0.02205 1.521356,0.02205 0.672483,0 1.455209,-0.02205 l -0.08819,1.774915 q 0.352778,-0.518143 0.63941,-0.837848 0.297657,-0.33073 0.760678,-0.606338 0.463021,-0.275608 1.080383,-0.429948 0.628386,-0.165365 1.289845,-0.165365 0.496094,0 0.959116,0.09922 0.463021,0.08819 0.837848,0.264584 0.385851,0.165364 0.650435,0.385851 0.275607,0.220486 0.463021,0.496094 0.187413,0.264584 0.4079,0.793751 0.242535,-0.385851 0.440972,-0.639411 0.209462,-0.264583 0.551216,-0.540191 0.341754,-0.275608 0.760678,-0.463021 0.418924,-0.187414 0.937067,-0.286633 0.529167,-0.110243 1.091407,-0.110243 0.959116,0 1.807988,0.319705 0.848873,0.308681 1.333943,0.992189 0.485069,0.672483 0.485069,1.675696 0,0.529167 -0.07717,1.554429 -0.07717,1.025261 -0.187413,3.351392 -0.110243,2.315107 -0.121268,3.582903 -0.804775,-0.02205 -1.422136,-0.02205 -0.727605,0 -1.70877,0.02205 0.09922,-1.422137 0.187414,-2.976566 l 0.132292,-2.524568 q 0.05512,-0.959116 0.05512,-1.620575 0,-0.782726 -0.253559,-1.179602 -0.242535,-0.407899 -0.628386,-0.573264 -0.374827,-0.176389 -0.848873,-0.176389 -0.496094,0 -0.903994,0.187413 -0.396875,0.187414 -0.749653,0.606338 -0.341754,0.418924 -0.529167,0.981164 -0.187414,0.551216 -0.275608,1.565453 -0.08819,1.003213 -0.143316,2.645836 L 69.694232,95.25 q -0.915018,-0.02205 -1.521355,-0.02205 -0.606338,0 -1.620575,0.02205 0.07717,-0.848872 0.220487,-3.47266 0.143316,-2.623787 0.143316,-3.538805 0,-0.48507 -0.07717,-0.8158 -0.07717,-0.341754 -0.319705,-0.63941 -0.23151,-0.308681 -0.551216,-0.451997 -0.319705,-0.143316 -0.738629,-0.143316 -0.771702,0 -1.355991,0.507118 -0.584289,0.507119 -0.859896,1.355991 -0.264584,0.848873 -0.385852,3.307295 -0.110243,2.447399 -0.110243,3.891584 -1.014237,-0.02205 -1.53238,-0.02205 -0.584289,0 -1.620574,0.02205 z" />
      <path
         id="path207"
         style="font-style:normal;font-variant:normal;font-weight:normal;font-stretch:normal;font-size:22.5778px;font-family:'Eras Demi ITC';-inkscape-font-specification:'Eras Demi ITC';fill:#338000;stroke-width:0.264583"
         d="m 78.160908,100.32119 q -0.198438,-1.653652 -0.319705,-2.381257 1.058334,0.496095 1.995401,0.496095 0.286632,0 0.584289,-0.07717 0.297656,-0.06615 0.551216,-0.198437 0.165364,-0.08819 0.330729,-0.25356 0.176389,-0.165364 0.474046,-0.606337 0.297656,-0.440973 0.518143,-0.870921 0.176389,-0.363803 0.363802,-0.915018 l -2.293058,-6.71381 -1.675696,-4.762505 q 1.157553,0.02205 1.664672,0.02205 0.584289,0 1.53238,-0.02205 0.231511,0.915018 0.429948,1.587501 l 1.04731,3.461636 q 0.48507,1.598526 0.694532,2.403301 0.132292,0.529167 0.308681,1.400088 0.33073,-1.003213 0.573265,-1.631599 0.429948,-1.146529 1.20165,-3.06476 l 1.069359,-2.634811 q 0.286632,-0.705557 0.584289,-1.521356 0.992188,0.02205 1.510331,0.02205 0.474046,0 1.587502,-0.02205 l -4.244362,9.513985 -1.841061,4.200265 q -0.385851,0.815799 -0.738629,1.267796 -0.286633,0.385851 -0.628386,0.661459 -0.33073,0.264584 -0.705557,0.440975 -0.474045,0.22048 -1.025261,0.35278 -0.628386,0.13229 -1.267797,0.13229 -0.363802,0 -1.014237,-0.0662 -0.650434,-0.0661 -1.267796,-0.22048 z" />
      <path
         id="path209"
         style="font-style:normal;font-variant:normal;font-weight:normal;font-stretch:normal;font-size:22.5778px;font-family:'Eras Demi ITC';-inkscape-font-specification:'Eras Demi ITC';fill:#338000;stroke-width:0.264583"
         d="m 97.574726,95.25 0.198438,-2.612763 0.275608,-5.787766 0.132292,-4.200265 q 0.01102,-0.573265 0.01102,-1.157553 0,-0.429949 -0.01102,-1.289845 1.411112,0.02205 2.293056,0.02205 0.70556,0 1.96233,-0.03307 1.25677,-0.03307 1.9954,-0.03307 1.52136,0 2.23794,0.220487 0.76068,0.242535 1.33394,0.760678 0.57326,0.518142 0.87092,1.245747 0.33073,0.8158 0.33073,1.752867 0,1.422137 -0.71658,2.590714 -0.70556,1.157553 -1.96233,1.730818 -1.25677,0.573264 -2.78915,0.573264 -0.74965,0 -1.59853,-0.15434 -0.24253,-1.146529 -0.55121,-2.149742 0.68351,0.143316 1.35599,0.143316 0.91502,0 1.5875,-0.275608 0.67248,-0.275608 1.06936,-0.892969 0.39687,-0.628386 0.39687,-1.411113 0,-0.463021 -0.16536,-0.848872 -0.16537,-0.385851 -0.48507,-0.617362 -0.30868,-0.231511 -0.69453,-0.308681 -0.37483,-0.08819 -1.08039,-0.08819 -0.61736,0 -1.24574,0.02205 -0.62839,0.02205 -1.11346,0.02205 -0.13229,2.160766 -0.19844,4.134119 l -0.13229,4.211289 q -0.0661,2.237936 -0.0661,3.285246 0,0.396875 0.011,1.146529 l -1.598526,-0.02205 q -0.308681,0 -1.653648,0.02205 z" />
      <path
         id="path211"
         style="font-style:normal;font-variant:normal;font-weight:normal;font-stretch:normal;font-size:22.5778px;font-family:'Eras Demi ITC';-inkscape-font-specification:'Eras Demi ITC';fill:#338000;stroke-width:0.264583"
         d="m 116.70192,83.773686 q 1.2678,0 2.42535,0.385851 1.16858,0.374827 1.97336,1.124481 0.8158,0.738629 1.2237,1.819012 0.4079,1.069359 0.4079,2.259985 0,1.256772 -0.42995,2.42535 -0.42995,1.168577 -1.24575,2.028474 -0.8158,0.848872 -2.0395,1.278821 -1.21267,0.418924 -2.59071,0.418924 -1.27882,0 -2.43638,-0.374827 -1.14653,-0.385851 -1.96233,-1.146529 -0.8158,-0.760678 -1.24574,-1.852085 -0.41893,-1.091408 -0.41893,-2.282034 0,-1.212675 0.38585,-2.315106 0.38585,-1.102432 1.20165,-1.962329 0.82683,-0.859897 2.10565,-1.333942 1.27882,-0.474046 2.64583,-0.474046 z m 0,2.271009 q -0.95911,0 -1.71979,0.474046 -0.74965,0.463021 -1.12448,1.389064 -0.3638,0.926043 -0.3638,2.01745 0,0.959116 0.29765,1.708769 0.30869,0.749654 0.99219,1.212675 0.69453,0.463021 1.64263,0.463021 0.97014,0 1.69774,-0.474045 0.73863,-0.48507 1.10243,-1.411113 0.37483,-0.937067 0.37483,-2.061547 0,-0.915018 -0.28663,-1.664672 -0.28664,-0.749654 -0.97014,-1.201651 -0.67249,-0.451997 -1.64263,-0.451997 z" />
      <path
         id="path213"
         style="font-style:normal;font-variant:normal;font-weight:normal;font-stretch:normal;font-size:22.5778px;font-family:'Eras Demi ITC';-inkscape-font-specification:'Eras Demi ITC';fill:#338000;stroke-width:0.264583"
         d="m 124.59534,95.25 0.3197,-5.23655 0.0882,-3.042712 q 0.022,-0.937067 0.022,-1.885158 0,-0.165365 -0.022,-1.04731 1.02526,0.02205 1.51033,0.02205 0.56224,0 1.48828,-0.02205 l -0.0551,1.554429 q 0.41892,-0.595314 0.71658,-0.881946 0.29766,-0.297656 0.66146,-0.507118 0.37483,-0.209462 0.82682,-0.319706 0.452,-0.110243 0.92604,-0.110243 0.44098,0 0.904,0.110243 0,1.025262 0.0992,2.601739 -0.65044,-0.176389 -1.1796,-0.176389 -0.63941,0 -1.13551,0.198438 -0.48507,0.187413 -0.88194,0.584289 -0.38586,0.385851 -0.63941,0.959115 -0.20947,0.463021 -0.30869,1.201651 -0.0882,0.573264 -0.15434,1.962328 -0.0551,1.389064 -0.0551,2.734031 0,0.518143 0.0331,1.300869 -0.83785,-0.02205 -1.53238,-0.02205 -0.68351,0 -1.6316,0.02205 z" />
      <path
         id="path215"
         style="font-style:normal;font-variant:normal;font-weight:normal;font-stretch:normal;font-size:22.5778px;font-family:'Eras Demi ITC';-inkscape-font-specification:'Eras Demi ITC';fill:#338000;stroke-width:0.264583"
         d="m 140.26088,92.945918 q -0.13229,0.606337 -0.41892,2.24896 -0.92605,0.209462 -1.45521,0.264584 -0.52917,0.05512 -0.99219,0.05512 -0.8158,0 -1.46624,-0.154341 -0.63941,-0.15434 -1.05833,-0.540191 -0.41893,-0.396876 -0.57327,-0.915019 -0.14331,-0.529167 -0.14331,-1.091407 0,-0.143316 0.011,-0.385851 0.011,-0.242535 0.0882,-1.565453 l 0.25356,-4.586116 h -1.58751 q 0.0551,-0.661459 0.0992,-2.127693 h 1.66468 q 0.0661,-0.63941 0.13229,-2.17179 l 1.30087,-0.25356 q 0.4079,-0.07717 1.57647,-0.363802 -0.0772,1.488283 -0.0882,2.789152 h 2.80018 q -0.0772,1.488283 -0.0772,2.127693 h -2.81121 q -0.23151,4.486897 -0.23151,5.192453 0,0.683508 0.14332,1.058335 0.15434,0.374827 0.48507,0.540191 0.33073,0.165365 0.70556,0.165365 0.2756,0 0.57326,-0.0441 0.30868,-0.0441 1.06936,-0.242535 z" />
      <path
         id="path217"
         style="font-style:normal;font-variant:normal;font-weight:normal;font-stretch:normal;font-size:22.5778px;font-family:'Eras Demi ITC';-inkscape-font-specification:'Eras Demi ITC';fill:#338000;stroke-width:0.264583"
         d="m 142.16808,95.25 0.1323,-1.819012 0.33073,-7.165806 h -1.36702 q 0.0331,-0.33073 0.0661,-1.069359 0.0441,-0.749653 0.0551,-1.091407 h 1.4993 v -0.440973 q 0,-1.179602 0.0992,-1.796964 0.0992,-0.628386 0.36381,-1.025261 0.2756,-0.396875 0.76067,-0.683508 0.4961,-0.297656 1.08039,-0.396875 0.58429,-0.110243 1.20165,-0.110243 1.25677,0 2.65686,0.352778 0.0331,1.234723 0.12127,2.116669 -1.05834,-0.374827 -1.92926,-0.374827 -0.34175,0 -0.62839,0.08819 -0.28663,0.07717 -0.47404,0.220487 -0.17639,0.143316 -0.29766,0.374827 -0.12127,0.23151 -0.16536,0.551215 -0.0441,0.308681 -0.0441,0.716581 v 0.4079 h 2.8112 q -0.0661,0.760678 -0.13229,2.160766 h -2.64584 q -0.20946,4.387678 -0.3197,8.984818 -1.00322,-0.02205 -1.59853,-0.02205 -0.60634,0 -1.57648,0.02205 z" />
      <path
         id="path219"
         style="font-style:normal;font-variant:normal;font-weight:normal;font-stretch:normal;font-size:22.5778px;font-family:'Eras Demi ITC';-inkscape-font-specification:'Eras Demi ITC';fill:#338000;stroke-width:0.264583"
         d="m 155.55161,83.773686 q 1.2678,0 2.42535,0.385851 1.16858,0.374827 1.97335,1.124481 0.8158,0.738629 1.2237,1.819012 0.4079,1.069359 0.4079,2.259985 0,1.256772 -0.42995,2.42535 -0.42995,1.168577 -1.24575,2.028474 -0.81579,0.848872 -2.03949,1.278821 -1.21268,0.418924 -2.59072,0.418924 -1.27882,0 -2.43637,-0.374827 -1.14653,-0.385851 -1.96233,-1.146529 -0.8158,-0.760678 -1.24575,-1.852085 -0.41892,-1.091408 -0.41892,-2.282034 0,-1.212675 0.38585,-2.315106 0.38585,-1.102432 1.20165,-1.962329 0.82682,-0.859897 2.10564,-1.333942 1.27882,-0.474046 2.64584,-0.474046 z m 0,2.271009 q -0.95912,0 -1.71979,0.474046 -0.74966,0.463021 -1.12448,1.389064 -0.36381,0.926043 -0.36381,2.01745 0,0.959116 0.29766,1.708769 0.30868,0.749654 0.99219,1.212675 0.69453,0.463021 1.64262,0.463021 0.97014,0 1.69775,-0.474045 0.73863,-0.48507 1.10243,-1.411113 0.37482,-0.937067 0.37482,-2.061547 0,-0.915018 -0.28663,-1.664672 -0.28663,-0.749654 -0.97014,-1.201651 -0.67248,-0.451997 -1.64262,-0.451997 z" />
      <path
         id="path221"
         style="font-style:normal;font-variant:normal;font-weight:normal;font-stretch:normal;font-size:22.5778px;font-family:'Eras Demi ITC';-inkscape-font-specification:'Eras Demi ITC';fill:#338000;stroke-width:0.264583"
         d="m 163.46707,95.25 q 0.16537,-1.86311 0.39688,-6.69176 0.24253,-4.839675 0.29765,-8.356432 1.14653,0.02205 1.6316,0.02205 0.65044,0 1.5875,-0.02205 l -0.26458,4.023875 -0.38585,8.973794 -0.0441,2.050523 q -0.90399,-0.02205 -1.53238,-0.02205 -0.20946,0 -1.68672,0.02205 z" />
      <path
         id="path223"
         style="font-style:normal;font-variant:normal;font-weight:normal;font-stretch:normal;font-size:22.5778px;font-family:'Eras Demi ITC';-inkscape-font-specification:'Eras Demi ITC';fill:#338000;stroke-width:0.264583"
         d="m 170.04858,82.120039 q 0.0441,-1.135505 0.0441,-1.741842 v -0.352778 q 1.00321,0.02205 1.6316,0.02205 0.8599,0 1.59852,-0.02205 -0.0331,0.275607 -0.0441,0.628386 l -0.0551,1.466234 q -0.83785,-0.02205 -1.54341,-0.02205 -0.70555,0 -1.6316,0.02205 z M 169.45327,95.25 q 0.16536,-1.653648 0.23151,-2.767104 0.11024,-1.76389 0.18741,-4.067972 0.0882,-2.304083 0.12127,-4.376654 1.08038,0.02205 1.62058,0.02205 0.49609,0 1.60955,-0.02205 -0.15434,1.918231 -0.25356,3.660073 -0.0882,1.741842 -0.1323,3.990803 -0.0441,2.24896 -0.0441,3.560854 -1.00322,-0.02205 -1.60955,-0.02205 -0.57327,0 -1.73082,0.02205 z" />
      <path
         id="path225"
         style="font-style:normal;font-variant:normal;font-weight:normal;font-stretch:normal;font-size:22.5778px;font-family:'Eras Demi ITC';-inkscape-font-specification:'Eras Demi ITC';fill:#338000;stroke-width:0.264583"
         d="m 181.52491,83.773686 q 1.26779,0 2.42535,0.385851 1.16857,0.374827 1.97335,1.124481 0.8158,0.738629 1.2237,1.819012 0.4079,1.069359 0.4079,2.259985 0,1.256772 -0.42995,2.42535 -0.42995,1.168577 -1.24575,2.028474 -0.8158,0.848872 -2.0395,1.278821 -1.21267,0.418924 -2.59071,0.418924 -1.27882,0 -2.43638,-0.374827 -1.14652,-0.385851 -1.96232,-1.146529 -0.8158,-0.760678 -1.24575,-1.852085 -0.41893,-1.091408 -0.41893,-2.282034 0,-1.212675 0.38586,-2.315106 0.38585,-1.102432 1.20165,-1.962329 0.82682,-0.859897 2.10564,-1.333942 1.27882,-0.474046 2.64584,-0.474046 z m 0,2.271009 q -0.95912,0 -1.7198,0.474046 -0.74965,0.463021 -1.12448,1.389064 -0.3638,0.926043 -0.3638,2.01745 0,0.959116 0.29766,1.708769 0.30868,0.749654 0.99219,1.212675 0.69453,0.463021 1.64262,0.463021 0.97014,0 1.69774,-0.474045 0.73863,-0.48507 1.10244,-1.411113 0.37482,-0.937067 0.37482,-2.061547 0,-0.915018 -0.28663,-1.664672 -0.28663,-0.749654 -0.97014,-1.201651 -0.67248,-0.451997 -1.64262,-0.451997 z" />
      <path
         id="path227"
         style="font-style:normal;font-variant:normal;font-weight:normal;font-stretch:normal;font-size:22.5778px;font-family:'Eras Demi ITC';-inkscape-font-specification:'Eras Demi ITC';fill:#338000;stroke-width:0.264583"
         d="m 190.33334,90.851298 0.12127,-3.88056 0.16536,-6.76893 q 1.05833,0.02205 1.66467,0.02205 0.47405,0 1.59853,-0.02205 l -0.23151,3.031687 -0.46302,7.617803 q -0.79376,-0.02205 -1.28985,-0.02205 -0.70556,0 -1.56545,0.02205 z m -0.44098,4.398702 0.0661,-0.915018 q 0.0331,-0.396876 0.0551,-0.837848 l 0.0551,-1.113456 q 1.25678,0.02205 1.73082,0.02205 0.34176,0 1.64262,-0.02205 -0.0882,1.234723 -0.15434,2.866322 l -1.65364,-0.02205 q -0.4961,0 -1.74185,0.02205 z" />
    </g>
  </g>
</svg>
